<svg width="500" height="500" viewBox="0 0 500 500" fill="none" xmlns="http://www.w3.org/2000/svg">
<rect width="500" height="500" fill="black"/>
<g clip-path="url(#clip0_1683_174)">
<path d="M101.006 83.1403C101.006 85.0567 100.348 86.6137 99.0307 87.8114C97.7135 89.049 96.2801 89.6479 94.6918 89.6479C93.1034 89.6479 91.67 89.049 90.3529 87.8114C89.0357 86.5738 88.3771 85.0168 88.3771 83.1403C88.3771 81.2639 89.0357 79.667 90.3529 78.4693C91.67 77.2716 93.1034 76.6328 94.6918 76.6328C96.2801 76.6328 97.7135 77.2317 99.0307 78.4693C100.348 79.7069 101.006 81.2639 101.006 83.1403ZM99.1469 171.092H90.1979V107.574H99.1469V171.092Z" fill="white"/>
<path d="M101.083 173.088H88.2599V105.578H101.083V173.088ZM92.134 169.096H97.209V109.57H92.134V169.096ZM94.6908 91.6442C92.6376 91.6442 90.7393 90.8457 89.0347 89.2887C87.2914 87.6918 86.4004 85.6157 86.4004 83.1405C86.4004 80.6652 87.2914 78.5892 89.0347 76.9923C92.4051 73.8782 96.9765 73.8782 100.308 76.9923C102.052 78.5892 102.943 80.6652 102.943 83.1405C102.943 85.6157 102.052 87.6918 100.308 89.2887C98.6423 90.8457 96.7441 91.6442 94.6521 91.6442H94.6908ZM94.6908 78.6291C93.6061 78.6291 92.5989 79.0683 91.6303 79.9466C90.7393 80.785 90.3132 81.823 90.3132 83.1405C90.3132 84.458 90.7393 85.496 91.6303 86.3344C93.5674 88.091 95.8143 88.091 97.7513 86.3344C98.6423 85.496 99.0685 84.458 99.0685 83.1405C99.0685 81.823 98.6423 80.785 97.7513 79.9466C96.7828 79.0683 95.8143 78.6291 94.6908 78.6291Z" fill="white"/>
<path d="M150.786 115.319H133.392V152.368C133.392 154.723 133.624 156.68 134.05 158.197C134.476 159.754 135.135 160.951 135.948 161.79C136.762 162.668 137.769 163.227 138.893 163.546C140.016 163.866 141.256 164.025 142.573 164.025C143.813 164.025 145.091 163.866 146.447 163.467C147.803 163.107 149.12 162.588 150.321 161.989L150.709 170.014C149.12 170.653 147.493 171.132 145.789 171.451C144.084 171.771 142.224 171.93 140.21 171.93C138.544 171.93 136.801 171.691 134.941 171.252C133.082 170.812 131.377 169.934 129.789 168.657C128.2 167.379 126.922 165.662 125.915 163.506C124.907 161.351 124.404 158.476 124.404 154.963V115.319H111.62V107.574H124.404V89.6479H133.353V107.574H150.747V115.319H150.786Z" fill="white"/>
<path d="M140.249 173.927C138.428 173.927 136.53 173.687 134.515 173.208C132.423 172.689 130.409 171.691 128.627 170.254C126.806 168.816 125.334 166.82 124.172 164.385C123.009 161.91 122.467 158.836 122.467 154.963V117.315H109.683V105.578H122.467V87.6519H135.29V105.578H152.684V117.315H135.29V152.368C135.29 154.524 135.484 156.28 135.871 157.638C136.22 158.836 136.685 159.754 137.304 160.393C137.886 160.991 138.583 161.431 139.396 161.63C141.256 162.149 143.503 162.229 145.982 161.55C147.183 161.231 148.384 160.792 149.469 160.193L152.103 158.835L152.723 171.332L151.406 171.851C149.74 172.529 147.958 173.048 146.099 173.368C144.278 173.687 142.263 173.887 140.171 173.887L140.249 173.927ZM113.634 113.323H126.418V154.963C126.418 158.197 126.883 160.752 127.736 162.668C128.627 164.545 129.711 166.062 131.067 167.1C132.423 168.178 133.895 168.936 135.445 169.295C139.28 170.214 142.651 170.014 145.517 169.455C146.641 169.256 147.726 168.976 148.772 168.617L148.578 164.904C148.036 165.103 147.532 165.263 146.951 165.383C143.813 166.221 140.869 166.142 138.389 165.423C136.917 165.024 135.639 164.265 134.554 163.147C133.508 162.069 132.694 160.552 132.152 158.716C131.648 156.999 131.416 154.883 131.416 152.328V113.283H148.81V109.53H131.416V91.6043H126.341V109.53H113.557V113.283L113.634 113.323Z" fill="white"/>
<path d="M169.107 106.895H161.592L170.424 74.9961H179.761L169.107 106.895Z" fill="white"/>
<path d="M170.465 108.891H158.998L168.954 73H182.475L170.465 108.891ZM164.151 104.899H167.715L177.051 76.9924H171.86L164.151 104.899Z" fill="white"/>
<path d="M223.618 122.625C222.3 119.99 220.286 117.834 217.613 116.197C214.94 114.52 211.879 113.682 208.47 113.682C206.882 113.682 205.293 113.882 203.744 114.241C202.155 114.6 200.761 115.199 199.521 115.998C198.281 116.796 197.313 117.834 196.538 119.112C195.802 120.389 195.415 121.866 195.415 123.583C195.415 126.577 196.616 128.853 198.979 130.45C201.342 132.047 205.1 133.364 210.175 134.442C217.458 135.999 222.843 138.235 226.329 141.149C229.816 144.104 231.521 148.056 231.521 153.047C231.521 156.68 230.823 159.714 229.467 162.189C228.111 164.664 226.329 166.701 224.121 168.297C221.913 169.894 219.434 171.012 216.683 171.691C213.932 172.37 211.143 172.729 208.315 172.729C203.666 172.729 199.134 171.731 194.756 169.735C190.378 167.739 186.775 164.624 183.947 160.353L191.076 154.923C192.664 157.718 194.988 160.073 198.049 161.99C201.109 163.906 204.519 164.824 208.199 164.824C210.136 164.824 211.957 164.624 213.739 164.265C215.482 163.906 217.032 163.267 218.349 162.349C219.666 161.431 220.712 160.273 221.526 158.875C222.3 157.478 222.727 155.722 222.727 153.646C222.727 150.292 221.177 147.777 218.039 146.1C214.94 144.423 210.407 142.866 204.557 141.429C202.698 140.99 200.761 140.431 198.708 139.752C196.654 139.073 194.717 138.075 192.974 136.758C191.231 135.44 189.758 133.804 188.635 131.807C187.512 129.811 186.93 127.336 186.93 124.342C186.93 121.068 187.55 118.313 188.79 115.998C190.03 113.682 191.657 111.806 193.71 110.289C195.763 108.811 198.126 107.694 200.761 106.975C203.395 106.256 206.107 105.897 208.935 105.897C213.235 105.897 217.419 106.895 221.448 108.891C225.477 110.887 228.499 113.682 230.552 117.315L223.695 122.625H223.618Z" fill="white"/>
<path d="M208.355 174.725C203.474 174.725 198.631 173.647 194.021 171.571C189.295 169.455 185.382 166.062 182.399 161.51L181.353 159.913L191.697 152.009L192.781 153.925C194.176 156.44 196.307 158.556 199.096 160.273C201.847 161.99 204.907 162.828 208.239 162.828C210.021 162.828 211.764 162.668 213.391 162.309C214.902 161.99 216.219 161.471 217.304 160.712C218.389 159.953 219.202 159.035 219.861 157.917C220.481 156.839 220.791 155.402 220.791 153.685C220.791 151.09 219.629 149.254 217.149 147.936C214.205 146.34 209.788 144.822 204.094 143.425C202.195 142.946 200.22 142.387 198.089 141.668C195.842 140.91 193.711 139.832 191.813 138.395C189.837 136.918 188.21 135.081 186.932 132.845C185.614 130.57 184.956 127.695 184.956 124.382C184.956 120.788 185.653 117.674 187.048 115.079C188.404 112.524 190.263 110.368 192.588 108.692C194.835 107.055 197.392 105.857 200.258 105.059C207.348 103.102 215.212 103.621 222.263 107.095C226.641 109.251 229.972 112.365 232.18 116.317L233.033 117.834L222.96 125.619L221.914 123.543C220.752 121.268 219.009 119.351 216.645 117.874C213.159 115.678 208.704 115.119 204.171 116.157C202.815 116.477 201.614 116.956 200.568 117.634C199.561 118.273 198.825 119.112 198.205 120.11C197.624 121.068 197.353 122.186 197.353 123.543C197.353 125.859 198.205 127.496 200.026 128.733C202.195 130.17 205.721 131.408 210.563 132.446C218.234 134.083 223.774 136.399 227.532 139.592C231.444 142.906 233.459 147.417 233.459 153.007C233.459 156.959 232.684 160.353 231.173 163.147C229.662 165.902 227.687 168.178 225.246 169.894C222.844 171.611 220.132 172.849 217.149 173.607C214.244 174.326 211.299 174.685 208.355 174.685V174.725ZM186.699 160.792C189.101 163.946 192.084 166.341 195.571 167.898C202.195 170.892 209.401 171.451 216.258 169.735C218.776 169.136 221.062 168.098 223.038 166.661C224.975 165.263 226.602 163.427 227.803 161.191C229.004 159.035 229.585 156.28 229.585 153.007C229.585 148.615 228.113 145.222 225.091 142.667C221.875 139.952 216.723 137.836 209.788 136.359C204.404 135.201 200.53 133.804 197.934 132.087C195.028 130.17 193.479 127.216 193.479 123.543C193.479 121.467 193.944 119.591 194.873 118.034C195.764 116.517 196.965 115.239 198.438 114.281C199.871 113.363 201.498 112.644 203.28 112.245C208.781 111.007 214.282 111.766 218.583 114.441C220.868 115.878 222.689 117.634 224.122 119.671L227.841 116.796C226.059 114.241 223.619 112.205 220.52 110.648C214.282 107.574 207.387 107.175 201.188 108.891C198.786 109.57 196.617 110.568 194.757 111.925C192.936 113.243 191.464 114.92 190.418 116.956C189.334 118.952 188.83 121.427 188.83 124.342C188.83 126.937 189.295 129.132 190.263 130.769C191.271 132.526 192.549 134.003 194.06 135.121C195.648 136.319 197.392 137.197 199.251 137.836C201.266 138.514 203.164 139.033 204.985 139.513C210.989 140.99 215.677 142.627 218.931 144.383C222.689 146.379 224.665 149.613 224.665 153.685C224.665 156.121 224.161 158.197 223.231 159.913C222.302 161.59 221.023 162.948 219.474 164.026C217.963 165.064 216.181 165.822 214.166 166.221C212.307 166.621 210.292 166.82 208.239 166.82C204.21 166.82 200.452 165.782 197.082 163.666C194.447 162.029 192.278 160.033 190.612 157.758L186.699 160.752V160.792Z" fill="white"/>
<path d="M91.2809 209.938L106.157 261.519H106.428L123.009 209.938H131.687L148.539 261.519H148.81L163.57 209.938H173.062L153.575 273.456H143.813L127.348 221.994H127.077L110.884 273.456H101.121L81.6345 209.938H91.2421H91.2809Z" fill="white"/>
<path d="M154.97 275.452H142.418L127.232 228.023L112.278 275.452H99.6874L79 207.941H92.7141L106.389 255.291L121.614 207.941H133.082L148.578 255.331L162.137 207.941H175.696L154.97 275.452ZM145.207 271.46H152.142L170.427 211.934H165.042L150.282 263.515H147.454L146.757 262.158L130.331 211.934H124.442L107.862 263.515H105.034L104.375 262.078L89.886 211.934H84.3462L102.632 271.46H109.566L125.76 219.998H128.588L129.285 221.356L145.324 271.42L145.207 271.46Z" fill="white"/>
<path d="M239.464 239.801V241.837C239.464 242.555 239.426 243.314 239.348 244.152H188.25C188.327 247.306 188.947 250.3 190.109 253.095C191.233 255.89 192.821 258.365 194.836 260.441C196.85 262.517 199.213 264.194 201.964 265.392C204.676 266.629 207.62 267.228 210.797 267.228C215.445 267.228 219.474 266.11 222.845 263.914C226.215 261.719 228.811 259.124 230.554 256.249L237.256 261.679C233.576 266.469 229.508 269.903 225.053 271.979C220.637 274.055 215.872 275.093 210.758 275.093C206.186 275.093 201.964 274.255 198.051 272.578C194.138 270.901 190.768 268.585 187.978 265.591C185.15 262.597 182.942 259.084 181.315 255.011C179.688 250.939 178.875 246.508 178.875 241.717C178.875 236.926 179.649 232.495 181.238 228.422C182.826 224.35 184.995 220.837 187.824 217.843C190.652 214.848 193.945 212.533 197.702 210.856C201.46 209.179 205.567 208.341 209.944 208.341C214.787 208.341 219.048 209.179 222.729 210.856C226.409 212.533 229.508 214.808 231.949 217.643C234.389 220.478 236.288 223.831 237.527 227.624C238.767 231.417 239.426 235.489 239.426 239.84L239.464 239.801ZM230.36 236.806C230.089 230.818 228.23 225.867 224.743 221.955C221.256 218.002 216.336 216.046 209.944 216.046C206.961 216.046 204.211 216.605 201.654 217.723C199.097 218.841 196.85 220.398 194.952 222.354C193.053 224.31 191.465 226.506 190.342 229.021C189.218 231.496 188.56 234.091 188.366 236.806H230.399H230.36Z" fill="white"/>
<path d="M210.757 277.089C205.953 277.089 201.42 276.211 197.314 274.414C193.169 272.658 189.566 270.142 186.583 266.949C183.6 263.795 181.237 260.002 179.532 255.73C177.828 251.418 176.937 246.707 176.937 241.677C176.937 236.647 177.789 231.936 179.455 227.624C181.12 223.312 183.484 219.559 186.467 216.405C189.45 213.251 192.975 210.736 196.965 208.98C200.956 207.223 205.333 206.305 209.982 206.305C215.057 206.305 219.628 207.223 223.541 208.98C227.454 210.776 230.786 213.211 233.42 216.286C236.054 219.32 238.069 222.913 239.386 226.945C240.742 230.938 241.4 235.249 241.4 239.801V241.837C241.4 242.635 241.362 243.473 241.246 244.352L241.052 246.148H190.302C190.534 248.304 191.077 250.38 191.852 252.337C192.898 254.892 194.331 257.127 196.19 259.004C198.011 260.92 200.219 262.437 202.699 263.555C205.14 264.673 207.851 265.232 210.757 265.232C215.018 265.232 218.737 264.234 221.759 262.238C224.858 260.201 227.26 257.806 228.849 255.211L229.972 253.335L239.928 261.359L238.727 262.916C234.853 267.947 230.514 271.62 225.827 273.815C221.139 276.011 216.064 277.129 210.718 277.129L210.757 277.089ZM209.943 210.297C205.837 210.297 201.963 211.096 198.476 212.653C194.951 214.21 191.852 216.405 189.217 219.2C186.583 221.995 184.53 225.348 183.057 229.141C181.585 232.974 180.811 237.166 180.811 241.717C180.811 246.268 181.585 250.46 183.096 254.253C184.607 258.086 186.738 261.399 189.333 264.194C191.929 266.988 195.106 269.184 198.747 270.741C206.457 274.055 216.297 273.855 224.2 270.142C227.841 268.426 231.289 265.671 234.427 261.958L230.902 259.084C229.081 261.479 226.718 263.675 223.812 265.551C220.132 267.947 215.716 269.184 210.718 269.184C207.309 269.184 204.055 268.506 201.111 267.188C198.166 265.871 195.571 264.074 193.401 261.798C191.232 259.563 189.488 256.848 188.249 253.814C187.009 250.78 186.35 247.546 186.273 244.152V242.116H237.526C237.526 241.996 237.526 241.916 237.526 241.797V239.761C237.526 235.648 236.907 231.776 235.706 228.183C234.505 224.67 232.761 221.516 230.476 218.881C228.229 216.246 225.323 214.13 221.914 212.573C218.505 211.016 214.437 210.217 209.905 210.217L209.943 210.297ZM232.413 238.802H186.312L186.467 236.686C186.66 233.732 187.396 230.858 188.636 228.183C189.876 225.508 191.542 223.073 193.634 220.957C195.726 218.841 198.205 217.164 200.956 215.926C203.745 214.689 206.767 214.05 210.021 214.05C216.955 214.05 222.456 216.246 226.253 220.597C230.011 224.869 232.064 230.299 232.335 236.726L232.413 238.802ZM190.534 234.81H228.268C227.725 230.259 226.059 226.386 223.347 223.272C220.248 219.759 215.871 218.042 209.982 218.042C207.27 218.042 204.752 218.561 202.466 219.559C200.142 220.597 198.089 221.995 196.345 223.751C194.602 225.508 193.169 227.584 192.123 229.82C191.387 231.417 190.883 233.093 190.573 234.77L190.534 234.81Z" fill="white"/>
<path d="M261.468 262.717V273.456H252.519V170.853H261.468V220.957H261.739C264.374 216.805 267.783 213.651 272.006 211.535C276.228 209.419 280.567 208.341 285.061 208.341C289.904 208.341 294.243 209.219 298.155 210.936C302.068 212.652 305.4 215.008 308.15 218.002C310.901 220.996 313.07 224.51 314.62 228.582C316.17 232.654 316.906 237.046 316.906 241.757C316.906 246.468 316.131 250.859 314.62 254.931C313.07 259.004 310.94 262.517 308.15 265.511C305.4 268.505 302.029 270.861 298.155 272.578C294.243 274.294 289.865 275.173 285.061 275.173C280.567 275.173 276.228 274.135 272.006 272.059C267.783 269.983 264.374 266.909 261.739 262.836H261.468V262.717ZM307.453 241.677C307.453 238.164 306.911 234.81 305.865 231.696C304.819 228.582 303.308 225.867 301.332 223.552C299.356 221.236 296.916 219.4 294.01 218.042C291.105 216.685 287.812 216.006 284.131 216.006C280.722 216.006 277.545 216.645 274.64 217.962C271.734 219.28 269.255 221.076 267.124 223.392C264.994 225.707 263.366 228.422 262.204 231.536C261.042 234.65 260.422 238.044 260.422 241.637C260.422 245.23 261.003 248.624 262.204 251.738C263.405 254.852 265.032 257.566 267.124 259.802C269.216 262.078 271.734 263.834 274.64 265.152C277.545 266.469 280.683 267.108 284.131 267.108C287.812 267.108 291.105 266.469 294.01 265.152C296.916 263.834 299.356 262.038 301.332 259.722C303.308 257.407 304.819 254.692 305.865 251.578C306.911 248.464 307.453 245.11 307.453 241.597V241.677Z" fill="white"/>
<path d="M285.06 277.089C280.333 277.089 275.646 275.971 271.191 273.775C268.247 272.338 265.651 270.422 263.443 268.066V275.492H250.62V168.896H263.443V215.607C265.69 213.211 268.247 211.255 271.191 209.778C280.411 205.147 290.948 205.626 298.968 209.139C303.113 210.976 306.677 213.491 309.621 216.645C312.565 219.799 314.851 223.591 316.478 227.903C318.105 232.175 318.919 236.886 318.919 241.797C318.919 246.707 318.105 251.378 316.478 255.69C314.851 260.002 312.527 263.794 309.621 266.948C306.677 270.102 303.113 272.657 298.968 274.454C294.822 276.291 290.174 277.209 285.099 277.209L285.06 277.089ZM259.53 260.72H262.784L263.365 261.599C265.806 265.351 268.983 268.226 272.857 270.142C281.108 274.215 290.406 273.735 297.418 270.661C301.06 269.064 304.236 266.829 306.793 264.074C309.35 261.279 311.403 257.966 312.837 254.133C314.27 250.3 315.006 246.108 315.006 241.677C315.006 237.245 314.27 233.053 312.837 229.221C311.403 225.428 309.35 222.074 306.793 219.28C304.236 216.525 301.06 214.289 297.418 212.692C290.406 209.618 281.108 209.099 272.895 213.251C269.021 215.208 265.806 218.162 263.404 221.995L262.823 222.913H259.84L259.569 220.917V172.809H254.494V271.42H259.569V260.68L259.53 260.72ZM284.13 269.184C280.45 269.184 277.002 268.466 273.864 267.028C270.726 265.631 268.014 263.675 265.728 261.199C263.443 258.764 261.661 255.81 260.382 252.456C259.104 249.103 258.484 245.47 258.484 241.597C258.484 237.724 259.143 234.091 260.382 230.738C261.661 227.384 263.443 224.43 265.728 221.955C268.014 219.479 270.726 217.483 273.864 216.046C280.372 213.132 288.74 213.291 294.822 216.126C297.96 217.603 300.633 219.599 302.803 222.114C304.934 224.59 306.599 227.584 307.723 230.937C308.846 234.251 309.428 237.844 309.428 241.557C309.428 245.27 308.846 248.863 307.723 252.177C306.599 255.53 304.934 258.485 302.803 261C300.633 263.515 297.96 265.511 294.822 266.948C291.684 268.386 288.12 269.104 284.169 269.104L284.13 269.184ZM284.13 218.042C280.992 218.042 278.048 218.641 275.413 219.839C272.779 221.036 270.455 222.713 268.556 224.829C266.619 226.945 265.109 229.46 264.024 232.335C262.939 235.209 262.397 238.363 262.397 241.717C262.397 245.07 262.939 248.224 264.024 251.099C265.109 253.973 266.619 256.449 268.556 258.525C270.493 260.601 272.779 262.237 275.452 263.435C280.953 265.91 288.198 265.751 293.273 263.435C295.907 262.237 298.115 260.601 299.897 258.525C301.679 256.409 303.113 253.893 304.081 251.059C305.05 248.144 305.553 245.03 305.553 241.757C305.553 238.483 305.05 235.329 304.081 232.454C303.113 229.58 301.718 227.065 299.897 224.989C298.115 222.913 295.868 221.236 293.234 219.998C290.6 218.761 287.539 218.162 284.169 218.162L284.13 218.042Z" fill="white"/>
<path d="M252.675 382.727C250.04 386.799 246.631 389.873 242.409 391.949C238.186 394.025 233.847 395.063 229.353 395.063C224.51 395.063 220.172 394.185 216.259 392.468C212.346 390.751 209.014 388.396 206.264 385.402C203.513 382.407 201.344 378.894 199.794 374.822C198.245 370.75 197.47 366.358 197.47 361.647C197.47 356.936 198.245 352.545 199.794 348.472C201.344 344.4 203.474 340.887 206.264 337.893C209.053 334.898 212.385 332.543 216.259 330.826C220.172 329.109 224.549 328.231 229.353 328.231C233.847 328.231 238.186 329.309 242.409 331.425C246.631 333.541 250.04 336.695 252.675 340.847H252.946V290.743H261.895V393.346H252.946V382.607H252.675V382.727ZM206.961 361.687C206.961 365.2 207.503 368.554 208.549 371.668C209.595 374.782 211.106 377.497 213.082 379.812C215.058 382.128 217.498 383.924 220.404 385.242C223.31 386.559 226.602 387.198 230.283 387.198C233.692 387.198 236.869 386.559 239.774 385.242C242.68 383.924 245.159 382.128 247.29 379.892C249.382 377.617 251.048 374.942 252.21 371.828C253.411 368.714 253.992 365.32 253.992 361.727C253.992 358.134 253.411 354.74 252.21 351.626C251.009 348.512 249.382 345.797 247.29 343.482C245.198 341.166 242.68 339.37 239.774 338.052C236.869 336.735 233.731 336.096 230.283 336.096C226.602 336.096 223.31 336.775 220.404 338.132C217.498 339.49 215.058 341.326 213.082 343.642C211.106 345.957 209.595 348.672 208.549 351.786C207.503 354.9 206.961 358.254 206.961 361.767V361.687Z" fill="white"/>
<path d="M229.352 397.059C224.277 397.059 219.628 396.141 215.483 394.305C211.338 392.468 207.774 389.953 204.83 386.799C201.885 383.645 199.6 379.852 197.973 375.541C196.346 371.269 195.532 366.598 195.532 361.647C195.532 356.697 196.346 352.026 197.973 347.754C199.6 343.442 201.885 339.689 204.83 336.495C207.774 333.341 211.338 330.786 215.483 328.99C223.503 325.476 234.001 324.997 243.26 329.629C246.204 331.106 248.761 333.062 251.008 335.457V288.747H263.831V395.343H251.008V387.917C248.761 390.272 246.166 392.189 243.26 393.626C238.805 395.822 234.117 396.94 229.391 396.94L229.352 397.059ZM229.352 330.267C224.82 330.267 220.674 331.066 216.994 332.703C213.314 334.34 210.176 336.535 207.619 339.29C205.023 342.085 203.009 345.438 201.575 349.231C200.142 353.064 199.406 357.256 199.406 361.687C199.406 366.119 200.142 370.311 201.575 374.143C203.009 377.936 205.062 381.29 207.619 384.084C210.176 386.839 213.353 389.075 216.994 390.672C223.967 393.746 233.304 394.225 241.556 390.153C245.43 388.236 248.645 385.362 251.047 381.609L251.628 380.731H254.882V391.47H259.957V292.859H254.882V342.963H251.899L251.047 342.045C248.606 338.212 245.43 335.258 241.556 333.301C237.643 331.305 233.536 330.307 229.352 330.307V330.267ZM230.282 389.194C226.331 389.194 222.766 388.476 219.628 387.039C216.491 385.601 213.817 383.605 211.648 381.09C209.517 378.615 207.851 375.62 206.728 372.267C205.604 368.953 205.023 365.36 205.023 361.647C205.023 357.934 205.604 354.341 206.728 351.028C207.851 347.674 209.517 344.72 211.648 342.204C213.779 339.689 216.491 337.693 219.59 336.216C225.633 333.381 234.04 333.182 240.548 336.136C243.686 337.573 246.398 339.53 248.684 342.045C250.969 344.52 252.752 347.474 254.03 350.828C255.308 354.181 255.928 357.815 255.928 361.647C255.928 365.48 255.27 369.153 254.03 372.506C252.752 375.86 250.969 378.814 248.684 381.25C246.398 383.685 243.686 385.641 240.548 387.039C237.41 388.476 233.962 389.194 230.282 389.194ZM230.282 338.012C226.873 338.012 223.851 338.651 221.217 339.849C218.582 341.087 216.336 342.763 214.554 344.839C212.771 346.955 211.338 349.471 210.37 352.305C209.401 355.219 208.897 358.334 208.897 361.607C208.897 364.881 209.401 368.035 210.37 370.909C211.338 373.784 212.733 376.299 214.554 378.375C216.336 380.451 218.583 382.128 221.178 383.286C226.253 385.601 233.498 385.761 238.999 383.286C241.672 382.088 243.957 380.451 245.894 378.375C247.831 376.299 249.342 373.824 250.427 370.949C251.512 368.075 252.093 364.921 252.093 361.567C252.093 358.214 251.551 355.06 250.427 352.185C249.342 349.311 247.793 346.796 245.894 344.68C243.996 342.564 241.672 340.887 239.037 339.689C236.403 338.492 233.459 337.893 230.321 337.893L230.282 338.012Z" fill="white"/>
<path d="M320.818 352.345C320.818 346.875 319.423 342.763 316.595 340.088C313.767 337.414 309.699 336.056 304.353 336.056C300.673 336.056 297.225 336.735 294.087 338.092C290.949 339.45 288.237 341.246 286.068 343.522L281.07 337.414C283.627 334.779 286.959 332.623 291.143 330.906C295.327 329.189 300.014 328.311 305.322 328.311C308.653 328.311 311.791 328.79 314.658 329.748C317.564 330.706 320.082 332.104 322.29 334.02C324.498 335.936 326.203 338.332 327.443 341.206C328.682 344.121 329.302 347.514 329.302 351.387V379.214C329.302 381.649 329.38 384.204 329.573 386.799C329.767 389.434 329.999 391.63 330.348 393.466H322.329C322.058 391.909 321.864 390.272 321.67 388.436C321.477 386.599 321.399 384.843 321.399 383.126H321.128C318.3 387.398 315.123 390.432 311.559 392.269C307.995 394.105 303.733 395.063 298.736 395.063C296.373 395.063 293.932 394.704 291.414 394.025C288.896 393.346 286.61 392.229 284.557 390.672C282.504 389.115 280.76 387.118 279.405 384.683C278.049 382.248 277.351 379.253 277.351 375.7C277.351 370.79 278.552 366.917 280.993 364.043C283.395 361.168 286.649 359.052 290.678 357.655C294.707 356.258 299.356 355.339 304.586 354.94C309.816 354.541 315.239 354.341 320.857 354.341V352.305L320.818 352.345ZM318.184 361.687C314.503 361.687 310.784 361.847 307.065 362.166C303.346 362.486 299.937 363.124 296.915 364.083C293.893 365.041 291.414 366.398 289.477 368.235C287.54 370.031 286.572 372.427 286.572 375.421C286.572 377.696 286.998 379.573 287.811 381.13C288.625 382.687 289.748 383.925 291.182 384.883C292.576 385.841 294.165 386.52 295.869 386.919C297.574 387.318 299.317 387.518 301.06 387.518C304.237 387.518 307.026 386.959 309.506 385.841C311.946 384.723 314.038 383.166 315.704 381.21C317.37 379.253 318.649 377.018 319.54 374.503C320.431 371.987 320.857 369.313 320.857 366.478V361.727H318.222L318.184 361.687Z" fill="white"/>
<path d="M298.697 397.059C296.178 397.059 293.544 396.7 290.91 395.981C288.159 395.223 285.641 394.025 283.394 392.308C281.108 390.592 279.21 388.396 277.699 385.681C276.188 382.926 275.414 379.573 275.414 375.7C275.414 370.311 276.808 365.959 279.52 362.765C282.154 359.651 285.68 357.295 290.057 355.778C294.241 354.341 299.045 353.383 304.43 352.944C309.118 352.585 313.96 352.385 318.919 352.345C318.919 347.434 317.718 343.801 315.316 341.526C312.876 339.21 309.195 338.012 304.391 338.012C300.982 338.012 297.767 338.651 294.861 339.889C291.956 341.126 289.476 342.803 287.462 344.879L285.99 346.396L278.474 337.254L279.752 335.936C282.464 333.142 286.067 330.786 290.484 328.99C294.861 327.193 299.859 326.275 305.36 326.275C308.885 326.275 312.217 326.794 315.316 327.792C318.415 328.83 321.205 330.387 323.607 332.423C326.008 334.499 327.946 337.174 329.263 340.368C330.58 343.522 331.277 347.195 331.277 351.347V379.174C331.277 381.569 331.355 384.044 331.548 386.639C331.703 389.154 331.975 391.31 332.323 393.027L332.788 395.422H320.779L320.507 393.786C320.236 392.189 320.004 390.472 319.849 388.635C319.849 388.516 319.849 388.396 319.849 388.276C317.641 390.791 315.2 392.748 312.604 394.105C308.769 396.101 304.159 397.099 298.89 397.099L298.697 397.059ZM320.817 356.337C315.316 356.337 309.892 356.537 304.701 356.936C299.665 357.335 295.132 358.214 291.297 359.571C287.617 360.849 284.634 362.805 282.464 365.4C280.372 367.875 279.326 371.349 279.326 375.74C279.326 378.894 279.946 381.609 281.108 383.725C282.309 385.921 283.859 387.717 285.719 389.075C287.578 390.472 289.67 391.47 291.917 392.109C294.241 392.748 296.566 393.067 298.735 393.067C303.423 393.067 307.413 392.189 310.706 390.512C313.96 388.835 316.905 385.961 319.539 382.008L320.12 381.13H323.064L323.335 383.126C323.335 384.763 323.413 386.48 323.607 388.236C323.723 389.354 323.839 390.432 323.994 391.47H328.1C327.907 390.113 327.791 388.596 327.674 386.959C327.481 384.324 327.403 381.729 327.403 379.213V351.387C327.403 347.794 326.822 344.64 325.737 342.005C324.614 339.41 323.064 337.214 321.127 335.537C319.113 333.82 316.788 332.503 314.154 331.625C311.442 330.746 308.498 330.307 305.399 330.307C300.401 330.307 295.868 331.146 291.956 332.743C288.74 334.06 286.028 335.697 283.82 337.573L286.338 340.647C288.392 338.891 290.794 337.414 293.467 336.256C296.837 334.819 300.556 334.06 304.469 334.06C310.319 334.06 314.851 335.617 318.028 338.651C321.243 341.725 322.871 346.356 322.871 352.385V356.417H320.934L320.817 356.337ZM301.06 389.474C299.161 389.474 297.263 389.234 295.404 388.795C293.467 388.356 291.685 387.558 290.096 386.48C288.43 385.362 287.074 383.845 286.106 382.048C285.099 380.212 284.595 377.976 284.595 375.381C284.595 371.828 285.796 368.913 288.12 366.717C290.251 364.721 293.002 363.164 296.295 362.126C299.433 361.128 302.997 360.489 306.832 360.13C310.629 359.811 314.425 359.651 318.105 359.651H322.677V366.398C322.677 369.432 322.212 372.347 321.243 375.061C320.275 377.816 318.88 380.291 317.059 382.447C315.2 384.603 312.914 386.32 310.202 387.558C307.491 388.795 304.391 389.434 300.982 389.434L301.06 389.474ZM318.183 363.683C314.58 363.683 310.9 363.843 307.219 364.162C303.655 364.482 300.362 365.081 297.496 365.999C294.745 366.877 292.498 368.115 290.793 369.712C289.283 371.149 288.547 373.025 288.547 375.421C288.547 377.337 288.895 378.934 289.554 380.132C290.251 381.409 291.142 382.407 292.304 383.166C293.505 383.964 294.861 384.563 296.333 384.923C300.672 385.961 305.321 385.561 308.73 383.964C310.9 382.966 312.798 381.569 314.27 379.852C315.781 378.096 316.943 376.06 317.718 373.784C318.532 371.468 318.919 368.993 318.919 366.438V363.683H318.222H318.183Z" fill="white"/>
<path d="M371.685 383.525H371.956L391.055 329.908H400.818L370.135 409.875C368.276 414.745 365.951 418.698 363.085 421.612C360.218 424.566 356.111 426.044 350.765 426.044C348.053 426.044 345.38 425.764 342.746 425.245L343.676 416.821C345.768 417.54 347.976 417.899 350.262 417.899C353.322 417.899 355.763 416.941 357.506 414.985C359.249 413.029 360.799 410.274 362.116 406.641L367.114 393.346L340.77 329.948H350.765L371.724 383.565L371.685 383.525Z" fill="white"/>
<path d="M350.764 428C347.936 428 345.108 427.72 342.357 427.162L340.614 426.802L342.009 414.107L344.294 414.905C346.193 415.544 348.207 415.903 350.26 415.903C352.778 415.903 354.716 415.145 356.071 413.627C357.66 411.871 359.054 409.316 360.294 405.922L365.02 393.346L337.825 327.912H352.081L371.761 378.335L389.698 327.912H403.645L371.916 410.593C369.979 415.703 367.461 419.895 364.439 423.009C361.224 426.323 356.614 428 350.764 428ZM344.837 423.568C346.774 423.888 348.749 424.047 350.725 424.047C355.529 424.047 359.209 422.77 361.689 420.215C364.323 417.5 366.57 413.747 368.313 409.156L397.95 331.944H392.41L373.311 385.561H370.638L369.902 384.324L349.447 331.944H343.675L369.166 393.306L363.858 407.359C362.464 411.192 360.798 414.226 358.861 416.342C356.73 418.698 353.824 419.895 350.183 419.895C348.517 419.895 346.851 419.696 345.263 419.337L344.798 423.568H344.837Z" fill="white"/>
<path d="M419.064 386.919C419.064 388.835 418.406 390.512 417.088 391.989C415.771 393.466 414.067 394.225 411.936 394.225C409.805 394.225 408.101 393.466 406.784 391.989C405.466 390.512 404.808 388.795 404.808 386.919C404.808 385.042 405.466 383.326 406.784 381.808C408.101 380.331 409.805 379.573 411.936 379.573C414.067 379.573 415.771 380.331 417.088 381.808C418.406 383.286 419.064 385.002 419.064 386.919Z" fill="white"/>
<path d="M411.936 396.261C409.263 396.261 407.054 395.303 405.35 393.346C403.723 391.47 402.87 389.314 402.87 386.919C402.87 384.523 403.723 382.367 405.35 380.491C407.054 378.575 409.263 377.616 411.936 377.616C414.609 377.616 416.817 378.575 418.521 380.491C420.149 382.367 421.001 384.523 421.001 386.919C421.001 389.314 420.149 391.47 418.521 393.346C416.817 395.263 414.609 396.261 411.936 396.261ZM411.936 381.609C410.347 381.609 409.185 382.128 408.217 383.206C407.209 384.324 406.744 385.561 406.744 386.959C406.744 388.356 407.209 389.594 408.217 390.711C409.185 391.789 410.347 392.308 411.936 392.308C413.524 392.308 414.686 391.789 415.655 390.711C416.662 389.594 417.127 388.356 417.127 386.959C417.127 385.561 416.662 384.324 415.655 383.206C414.686 382.128 413.524 381.609 411.936 381.609Z" fill="white"/>
</g>
<defs>
<clipPath id="clip0_1683_174">
<rect width="342" height="355" fill="white" transform="translate(79 73)"/>
</clipPath>
</defs>
</svg>
